<?xml version="1.0" encoding="utf-8"?>
<!-- Generator: Adobe Illustrator 26.0.3, SVG Export Plug-In . SVG Version: 6.00 Build 0)  -->
<svg version="1.0" id="katman_1" xmlns="http://www.w3.org/2000/svg" xmlns:xlink="http://www.w3.org/1999/xlink" x="0px" y="0px"
	 viewBox="0 0 600 450" style="enable-background:new 0 0 600 450;" xml:space="preserve">
<style type="text/css">
	.st0{fill:#ED6D12;}
</style>
<path class="st0" d="M534.7,213.4h-15.2v-15.6h-11.4v15.6h-0.7c-4.8,0-8.3,3.3-8.3,8v2.4h8.9v31.3c0,9.8,5.5,15.3,15.6,15.3h11V260
	h-9.4c-3.7,0-5.8-2-5.8-5.8v-30.4h5.9c3.5,0,5.7-0.9,7.2-2.6c1.3-1.5,2.1-3.5,2-5.5L534.7,213.4L534.7,213.4z M469.8,236.2
	c-4.4-0.2-6.9-2.7-6.9-6.4c0-4.6,4.3-7.7,11.2-7.7c6.1,0,10.5,3.1,11.3,7.6h11.3c-0.8-10.6-9.7-17.5-22.6-17.5
	c-13.5,0-22.3,7.1-22.3,18.1c0,9.8,6.1,15.6,16.7,16.3l11.1,0.7c5.1,0.3,7.6,2.7,7.6,6.7c0,4.8-4.4,8-11.9,8
	c-7.2,0-12.4-3.5-13.2-8.5h-11.4c0.8,11.2,10.6,18.4,24.9,18.4c13.9,0,22.7-7.2,22.7-18.4c0-10-6.2-15.8-17.4-16.5
	C480.9,236.8,469.8,236.2,469.8,236.2z M406.3,238.5c-1.3,1.3-2.1,3-2.4,4.9v-1.7c0-11.7,6.7-19.7,16.2-19.7
	c7.8,0,13.4,5.3,14.9,13.8h-20.8C410.2,235.8,407.8,236.8,406.3,238.5z M446.8,242.3c0-18.1-9.2-30.5-26.7-30.5
	c-16.3,0-27.5,12.1-27.5,29.9c0,17.3,11,29.9,28.3,29.9c13.3,0,23.2-7.2,25.1-18.4h-11.2c-1.7,5.1-7.4,8.3-13.8,8.3
	c-10.1,0-15.7-6.7-16.9-16.1h42.6C446.8,245.3,446.8,242.3,446.8,242.3z M367.2,258.4l-14.9-45H340l19.8,57h14.4l19.8-57h-11.8
	C382.2,213.4,367.2,258.4,367.2,258.4z M325.8,213.4c-4.9,0-6.9,0.8-8.5,2.1c-1.9,1.7-3.1,4-3.5,6.6v-8.7h-11.4v57h11.4v-45.8h12.6
	c5.1,0,7.4-1.1,8.9-2.8c1.3-1.5,2-3.5,2-5.5v-2.8L325.8,213.4L325.8,213.4z M266.8,262.1c-6.5,0-10.5-3.3-10.5-8.5
	c0-5.1,4-8.4,10.3-8.4h15.3v8.4C278.1,259.1,273.2,262.1,266.8,262.1L266.8,262.1L266.8,262.1z M270.6,212.1
	c-14.3,0-23.8,7.9-24.3,20h11.3c0.7-6,5.7-9.8,12.6-9.8c7.1,0,11.7,4.3,11.7,11v10.1c-1.8-4.4-7.8-7.4-15.4-7.4
	c-13,0-21.5,7.2-21.5,18.4c0,10.1,6.9,17.2,18.7,17.2c8.6,0,15.3-3.6,18.3-10.6v9.5h11.2V232C293.1,219.9,284.3,212.1,270.6,212.1
	 M218.9,212.1c-8.9,0-15.5,4-18.3,10.9v-31.5h-11.4v79h11.4v-45c4.5-1.8,8.6-2.6,12.6-2.6c8.9,0,13.6,3.8,13.6,11.8v35.9h11.4v-38.6
	C238.2,219.1,230.9,212.1,218.9,212.1 M105.6,236.2v34.2h-5.8V219c0-0.8,0.2-1.5,0.4-2.2c0.3-0.7,0.7-1.3,1.3-1.9
	c0.5-0.5,1.2-0.9,1.9-1.2c0.7-0.3,1.4-0.4,2.2-0.4h17.1v17.1c0,0.8-0.1,1.5-0.4,2.2c-0.3,0.7-0.7,1.3-1.2,1.9
	c-0.5,0.5-1.2,1-1.8,1.3c-0.7,0.3-1.4,0.4-2.2,0.5L105.6,236.2L105.6,236.2z"/>
<path class="st0" d="M157.1,179v85.7c0,3.2-2.6,5.8-5.8,5.8h-5.7v-85.8c0-3.1,2.4-5.6,5.5-5.7c0,0,0.1,0,0.1,0H157.1L157.1,179z
	 M134.2,179h5.6v85.7c0,3.1-2.5,5.7-5.6,5.8h-5.8v-62.9c0-0.8,0.2-1.5,0.4-2.2c0.3-0.7,0.7-1.3,1.3-1.8c0.5-0.5,1.2-0.9,1.9-1.2
	c0.7-0.3,1.4-0.4,2.2-0.4C134.2,201.8,134.2,179,134.2,179z M88.4,270.4h-5.6v-85.8c0-3.1,2.4-5.6,5.5-5.7c0,0,0.1,0,0.1,0h5.8v62.8
	c0,1.5-0.6,3-1.7,4.1c-1.1,1.1-2.5,1.7-4.1,1.7V270.4L88.4,270.4z M65.6,270.4v-85.8c0-0.8,0.2-1.5,0.4-2.2c0.3-0.7,0.7-1.3,1.3-1.8
	c1.1-1.1,2.5-1.7,4.1-1.6H77v85.7c0,0.8-0.1,1.5-0.4,2.2s-0.7,1.3-1.2,1.9s-1.2,1-1.8,1.3c-0.7,0.3-1.4,0.4-2.2,0.5L65.6,270.4
	L65.6,270.4z"/>
</svg>
