<?xml version="1.0" encoding="utf-8"?>
<!-- Generator: Adobe Illustrator 26.0.3, SVG Export Plug-In . SVG Version: 6.00 Build 0)  -->
<svg version="1.0" id="katman_1" xmlns="http://www.w3.org/2000/svg" xmlns:xlink="http://www.w3.org/1999/xlink" x="0px" y="0px"
	 viewBox="0 0 600 450" style="enable-background:new 0 0 600 450;" xml:space="preserve">
<style type="text/css">
	.st0{fill:#3C3F40;}
	.st1{fill:#E83B67;}
</style>
<g id="logo" transform="translate(70.000000, 37.000000)">
	<path id="Fill-1" class="st0" d="M89.2,208.5c-4.2,0-8.1-0.7-11.7-2.2c-3.5-1.4-6.6-3.5-9.2-6c-2.6-2.6-4.6-5.6-6.1-9.2
		c-1.5-3.5-2.2-7.4-2.2-11.7c0-4.3,0.8-8.4,2.4-12.1c1.6-3.8,3.9-7,6.7-9.8c2.9-2.8,6.2-5,10.1-6.6c3.9-1.6,8-2.4,12.5-2.4
		c3.3,0,6.4,0.5,9.4,1.4c2.9,1,5.4,2.3,7.6,3.9c2.2,1.7,3.9,3.7,5.1,6c1.2,2.3,1.9,4.8,1.9,7.4c0,2.9-0.9,5.3-2.7,7.2
		c-1.8,1.9-4,2.9-6.7,2.9c-2.7,0-5-0.9-6.8-2.8c-1.8-1.9-2.7-4.3-2.7-7.2c0-0.8,0.1-1.6,0.3-2.4c0.2-0.8,0.5-1.9,0.8-3.3
		c0.4-1.3,0.6-2.3,0.7-2.9c0.1-0.6,0.2-1.3,0.2-2.1c0-2-0.6-3.6-1.9-4.8c-1.3-1.3-2.9-1.9-4.8-1.9c-1.7,0-3.3,0.6-4.8,1.7
		c-1.5,1.1-2.7,2.6-3.8,4.5c-1.1,1.9-1.9,4.2-2.6,6.8c-0.6,2.6-1,5.4-1,8.4c0,6.9,1.7,12.4,5.2,16.5c3.5,4.1,8.2,6.1,14.1,6.1
		c3.3,0,6.3-0.6,9.1-1.9c2.7-1.3,5.4-3.2,7.9-5.9l1.4,0.7C111.2,201.3,101.7,208.5,89.2,208.5"/>
	<path id="Fill-3" class="st0" d="M160.9,165.7c-0.3-3.7-0.8-6.8-1.4-9c-0.6-2.1-1.6-3.8-2.9-5c-1.3-1.2-2.9-1.8-4.7-1.8
		c-1.9,0-3.5,0.6-4.9,1.8c-1.3,1.2-2.3,2.8-2.8,5c-0.6,2.4-1.1,5.5-1.4,9.2c-0.3,3.7-0.5,7.9-0.5,12.7s0.2,9,0.5,12.7
		c0.3,3.7,0.8,6.8,1.4,9.2c0.5,2.1,1.5,3.8,2.8,5c1.3,1.2,3,1.8,4.9,1.8c1.8,0,3.4-0.6,4.8-1.8c1.3-1.2,2.3-2.8,2.8-5
		c1.3-5,2-12.2,2-21.9C161.5,173.7,161.3,169.4,160.9,165.7 M180.8,190.4c-1.6,3.6-3.8,6.8-6.6,9.5c-2.8,2.7-6.1,4.8-9.9,6.3
		c-3.8,1.5-7.9,2.3-12.3,2.3c-4.5,0-8.6-0.8-12.4-2.3c-3.8-1.5-7.1-3.6-9.9-6.3c-2.8-2.7-5-5.9-6.6-9.5c-1.6-3.6-2.4-7.6-2.4-11.9
		c0-4.3,0.8-8.2,2.4-11.9c1.6-3.6,3.8-6.8,6.6-9.5c2.8-2.7,6.1-4.8,9.9-6.3c3.8-1.5,7.9-2.3,12.4-2.3c4.4,0,8.5,0.8,12.3,2.3
		c3.8,1.5,7.1,3.6,9.9,6.3c2.8,2.7,5,5.9,6.6,9.5c1.6,3.6,2.4,7.6,2.4,11.9C183.2,182.8,182.4,186.7,180.8,190.4"/>
	<path id="Fill-5" class="st0" d="M418.9,157.3c0,5.5,4.5,10,10,10c5.5,0,10-4.5,10-10s-4.5-10-10-10
		C423.4,147.2,418.9,151.7,418.9,157.3"/>
	<path id="Fill-5-Copy" class="st1" d="M21.4,163.4c0,5.5,4.5,10,10,10s10-4.5,10-10c0-5.5-4.5-10-10-10S21.4,157.9,21.4,163.4"/>
	<path id="Fill-5-Copy-2" class="st1" d="M21.4,194c0,5.5,4.5,10,10,10s10-4.5,10-10c0-5.5-4.5-10-10-10S21.4,188.4,21.4,194"/>
	<path id="Fill-8" class="st0" d="M226.3,198.4c-2,4.5-4.8,6.7-8.3,6.7c-2.1,0-3.9-0.8-5.6-2.5v-44.9c1.7-1.1,3-1.8,3.9-2.2
		c0.9-0.4,1.8-0.6,2.7-0.6c3.2,0,5.7,2.2,7.5,6.6c1.8,4.4,2.7,10.4,2.7,18.1C229.3,187.6,228.3,193.9,226.3,198.4 M249,164.7
		c-1-3.3-2.5-6.2-4.3-8.6c-1.9-2.4-4.1-4.3-6.7-5.6c-2.6-1.3-5.4-2-8.5-2c-2.9,0-5.7,0.6-8.4,1.7c-2.7,1.1-5.6,3-8.7,5.7v-4.8v-2.6
		l-28,8.4v0.5v1.2c1.2,0.2,2.2,0.4,3,0.8c1.1,0.5,2.1,1.3,2.9,2.3c0.5,0.6,0.8,1.3,1.1,1.9c0.3,0.7,0.5,1.5,0.6,2.4
		c0.2,0.9,0.3,2,0.3,3.2c0.1,1.3,0.1,2.7,0.1,4.4v36v4.7c0,1.3,0,2.4-0.1,3.2c0,0.8-0.1,1.6-0.2,2.2c-0.1,0.6-0.2,1.2-0.3,1.8
		c-0.2,1.4-0.7,2.6-1.5,3.4c-0.8,1.1-1.8,1.8-2.9,2.2c-0.5,0.2-1.2,0.4-2,0.5v1.8h34v-1.6c-1-0.1-1.9-0.3-2.5-0.5
		c-1.1-0.3-2-0.9-2.7-1.7c-0.4-0.5-0.7-0.9-0.9-1.5c-0.2-0.5-0.4-1.2-0.6-2c-0.2-0.8-0.2-1.8-0.3-3c0-1.2-0.1-2.6-0.1-4.3v-10.4
		c2,1.5,3.8,2.6,5.4,3.2c1.6,0.6,3.5,0.9,5.7,0.9c3.8,0,7.3-0.8,10.6-2.5c3.3-1.7,6.1-4,8.5-7c2.4-3,4.3-6.4,5.7-10.4
		c1.4-4,2.1-8.3,2.1-12.9C250.5,171.7,250,168,249,164.7"/>
	<path id="Fill-10" class="st0" d="M296.7,198.4c-2,4.5-4.8,6.7-8.3,6.7c-2.1,0-3.9-0.8-5.6-2.5v-44.9c1.7-1.1,3-1.8,3.9-2.2
		c0.9-0.4,1.8-0.6,2.7-0.6c3.2,0,5.7,2.2,7.5,6.6c1.8,4.4,2.7,10.4,2.7,18.1C299.6,187.6,298.6,193.9,296.7,198.4 M319.3,164.7
		c-1-3.3-2.5-6.2-4.3-8.6c-1.9-2.4-4.1-4.3-6.7-5.6c-2.6-1.3-5.4-2-8.5-2c-2.9,0-5.7,0.6-8.4,1.7c-2.7,1.1-5.6,3-8.7,5.7v-4.8v-2.6
		l-28,8.4v0.5v1.2c1.2,0.2,2.2,0.4,3,0.8c1.1,0.5,2.1,1.3,2.9,2.3c0.5,0.6,0.8,1.3,1.1,1.9c0.3,0.7,0.5,1.5,0.6,2.4
		c0.2,0.9,0.3,2,0.3,3.2c0.1,1.3,0.1,2.7,0.1,4.4v36v4.7c0,1.3,0,2.4-0.1,3.2c0,0.8-0.1,1.6-0.2,2.2c-0.1,0.6-0.2,1.2-0.3,1.8
		c-0.2,1.4-0.7,2.6-1.5,3.4c-0.8,1.1-1.8,1.8-2.9,2.2c-0.5,0.2-1.2,0.4-2,0.5v1.8h34v-1.6c-1-0.1-1.9-0.3-2.5-0.5
		c-1.1-0.3-2-0.9-2.7-1.7c-0.4-0.5-0.7-0.9-0.9-1.5c-0.2-0.5-0.4-1.2-0.6-2c-0.2-0.8-0.2-1.8-0.3-3c0-1.2-0.1-2.6-0.1-4.3v-10.4
		c2,1.5,3.8,2.6,5.4,3.2c1.6,0.6,3.5,0.9,5.7,0.9c3.8,0,7.3-0.8,10.6-2.5c3.3-1.7,6.1-4,8.5-7c2.4-3,4.3-6.4,5.7-10.4
		c1.4-4,2.1-8.3,2.1-12.9C320.8,171.7,320.3,168,319.3,164.7"/>
	<path id="Fill-12" class="st0" d="M419,204.9c-1.1-0.3-1.9-0.9-2.5-1.8c-0.4-0.5-0.7-0.9-0.8-1.5c-0.2-0.5-0.4-1.2-0.5-2
		c-0.2-0.8-0.2-1.8-0.3-3c0-1.2-0.1-2.7-0.1-4.4V185v-6.8v-29.8l-28.3,8.5v1.7c1.4,0.2,2.5,0.5,3.3,0.8c1.1,0.5,2.1,1.3,2.9,2.3
		c0.5,0.6,0.8,1.2,1.1,1.9c0.3,0.7,0.5,1.5,0.6,2.4c0.1,0.9,0.3,2,0.3,3.2c0.1,1.2,0.1,2.7,0.1,4.4v18.6c0,3.6-0.1,6.1-0.3,7.6
		c-0.2,1.5-0.6,2.6-1.2,3.4c-0.7,0.8-1.5,1.4-2.6,1.8c-0.8,0.2-1.8,0.4-3.2,0.6v1.5h34.3v-1.6C420.6,205.3,419.6,205.2,419,204.9"/>
	<path id="Fill-14" class="st0" d="M355.7,149.9c2.3,0,4,0.9,5.2,2.8c1.2,1.9,2,4.9,2.3,9c0.1,0.8,0.1,1.5,0.2,2.1
		c0,0.6,0.1,1.3,0.1,2c0,0.7,0.1,1.6,0.1,2.5v2.2h-17.4c0.1-6.5,0.9-11.5,2.4-15C350.1,151.8,352.5,149.9,355.7,149.9z M383,184.3
		c-1.1,1.8-2.1,3.1-2.8,3.9c-0.8,0.9-1.8,1.7-3.1,2.6c-3.3,2.4-7.4,3.5-12.1,3.5c-12.5,0-18.9-7.1-18.9-21.3h35.6v0h1.9
		c-0.5-3.7-1.5-7.1-3-10.1c-1.5-3-3.5-5.6-6-7.8c-2.4-2.1-5.2-3.8-8.4-4.9c-3.2-1.1-6.7-1.7-10.4-1.7c-4.3,0-8.3,0.8-12.1,2.4
		c-3.7,1.6-7,3.8-9.8,6.6c-2.8,2.8-5,6-6.6,9.7c-1.6,3.7-2.4,7.7-2.4,12c0,4.2,0.8,8.1,2.3,11.6c1.5,3.6,3.6,6.7,6.3,9.3
		c2.7,2.6,5.9,4.7,9.5,6.2c3.7,1.5,7.6,2.2,11.8,2.2c4.5,0,8.5-0.9,12.2-2.6c3.7-1.7,6.9-4.2,9.5-7.4c0.8-1.1,1.6-2.1,2.2-3
		c0.6-0.9,1.2-1.9,1.8-2.8c0.5-1,1.1-2.1,1.6-3.4c0.5-1.3,1.1-2.8,1.8-4.6L383,184.3z"/>
</g>
<g>
	<g id="logo_00000169525968594219568650000013256619184519993268_" transform="translate(70.000000, 37.000000)">
		<path id="Fill-1_00000011016469208023276880000004608259732116492433_" class="st0" d="M89.2,208.5c-4.2,0-8.1-0.7-11.7-2.2
			c-3.5-1.4-6.6-3.5-9.2-6c-2.6-2.6-4.6-5.6-6.1-9.2c-1.5-3.5-2.2-7.4-2.2-11.7c0-4.3,0.8-8.4,2.4-12.1c1.6-3.8,3.9-7,6.7-9.8
			c2.9-2.8,6.2-5,10.1-6.6c3.9-1.6,8-2.4,12.5-2.4c3.3,0,6.4,0.5,9.4,1.4c2.9,1,5.4,2.3,7.6,3.9c2.2,1.7,3.9,3.7,5.1,6
			c1.2,2.3,1.9,4.8,1.9,7.4c0,2.9-0.9,5.3-2.7,7.2c-1.8,1.9-4,2.9-6.7,2.9c-2.7,0-5-0.9-6.8-2.8c-1.8-1.9-2.7-4.3-2.7-7.2
			c0-0.8,0.1-1.6,0.3-2.4c0.2-0.8,0.5-1.9,0.8-3.3c0.4-1.3,0.6-2.3,0.7-2.9c0.1-0.6,0.2-1.3,0.2-2.1c0-2-0.6-3.6-1.9-4.8
			c-1.3-1.3-2.9-1.9-4.8-1.9c-1.7,0-3.3,0.6-4.8,1.7c-1.5,1.1-2.7,2.6-3.8,4.5c-1.1,1.9-1.9,4.2-2.6,6.8c-0.6,2.6-1,5.4-1,8.4
			c0,6.9,1.7,12.4,5.2,16.5c3.5,4.1,8.2,6.1,14.1,6.1c3.3,0,6.3-0.6,9.1-1.9c2.7-1.3,5.4-3.2,7.9-5.9l1.4,0.7
			C111.2,201.3,101.7,208.5,89.2,208.5"/>
		<path id="Fill-3_00000011742743377546024350000002478270211733710756_" class="st0" d="M160.9,165.7c-0.3-3.7-0.8-6.8-1.4-9
			c-0.6-2.1-1.6-3.8-2.9-5c-1.3-1.2-2.9-1.8-4.7-1.8c-1.9,0-3.5,0.6-4.9,1.8c-1.3,1.2-2.3,2.8-2.8,5c-0.6,2.4-1.1,5.5-1.4,9.2
			c-0.3,3.7-0.5,7.9-0.5,12.7s0.2,9,0.5,12.7c0.3,3.7,0.8,6.8,1.4,9.2c0.5,2.1,1.5,3.8,2.8,5c1.3,1.2,3,1.8,4.9,1.8
			c1.8,0,3.4-0.6,4.8-1.8c1.3-1.2,2.3-2.8,2.8-5c1.3-5,2-12.2,2-21.9C161.5,173.7,161.3,169.4,160.9,165.7 M180.8,190.4
			c-1.6,3.6-3.8,6.8-6.6,9.5c-2.8,2.7-6.1,4.8-9.9,6.3c-3.8,1.5-7.9,2.3-12.3,2.3c-4.5,0-8.6-0.8-12.4-2.3c-3.8-1.5-7.1-3.6-9.9-6.3
			c-2.8-2.7-5-5.9-6.6-9.5c-1.6-3.6-2.4-7.6-2.4-11.9c0-4.3,0.8-8.2,2.4-11.9c1.6-3.6,3.8-6.8,6.6-9.5c2.8-2.7,6.1-4.8,9.9-6.3
			c3.8-1.5,7.9-2.3,12.4-2.3c4.4,0,8.5,0.8,12.3,2.3c3.8,1.5,7.1,3.6,9.9,6.3c2.8,2.7,5,5.9,6.6,9.5c1.6,3.6,2.4,7.6,2.4,11.9
			C183.2,182.8,182.4,186.7,180.8,190.4"/>
		<path id="Fill-5_00000042696154182986708640000006184571545047555742_" class="st0" d="M418.9,157.3c0,5.5,4.5,10,10,10
			c5.5,0,10-4.5,10-10s-4.5-10-10-10C423.4,147.2,418.9,151.7,418.9,157.3"/>
		<path id="Fill-5-Copy_00000016064115279616205030000000465230881663261100_" class="st1" d="M21.4,163.4c0,5.5,4.5,10,10,10
			s10-4.5,10-10c0-5.5-4.5-10-10-10S21.4,157.9,21.4,163.4"/>
		<path id="Fill-5-Copy-2_00000134231448144615100240000015161598083555143583_" class="st1" d="M21.4,194c0,5.5,4.5,10,10,10
			s10-4.5,10-10c0-5.5-4.5-10-10-10S21.4,188.4,21.4,194"/>
		<path id="Fill-8_00000140713630128390992890000011380071841172234421_" class="st0" d="M226.3,198.4c-2,4.5-4.8,6.7-8.3,6.7
			c-2.1,0-3.9-0.8-5.6-2.5v-44.9c1.7-1.1,3-1.8,3.9-2.2c0.9-0.4,1.8-0.6,2.7-0.6c3.2,0,5.7,2.2,7.5,6.6c1.8,4.4,2.7,10.4,2.7,18.1
			C229.3,187.6,228.3,193.9,226.3,198.4 M249,164.7c-1-3.3-2.5-6.2-4.3-8.6c-1.9-2.4-4.1-4.3-6.7-5.6c-2.6-1.3-5.4-2-8.5-2
			c-2.9,0-5.7,0.6-8.4,1.7c-2.7,1.1-5.6,3-8.7,5.7v-4.8v-2.6l-28,8.4v0.5v1.2c1.2,0.2,2.2,0.4,3,0.8c1.1,0.5,2.1,1.3,2.9,2.3
			c0.5,0.6,0.8,1.3,1.1,1.9c0.3,0.7,0.5,1.5,0.6,2.4c0.2,0.9,0.3,2,0.3,3.2c0.1,1.3,0.1,2.7,0.1,4.4v36v4.7c0,1.3,0,2.4-0.1,3.2
			c0,0.8-0.1,1.6-0.2,2.2c-0.1,0.6-0.2,1.2-0.3,1.8c-0.2,1.4-0.7,2.6-1.5,3.4c-0.8,1.1-1.8,1.8-2.9,2.2c-0.5,0.2-1.2,0.4-2,0.5v1.8
			h34v-1.6c-1-0.1-1.9-0.3-2.5-0.5c-1.1-0.3-2-0.9-2.7-1.7c-0.4-0.5-0.7-0.9-0.9-1.5c-0.2-0.5-0.4-1.2-0.6-2c-0.2-0.8-0.2-1.8-0.3-3
			c0-1.2-0.1-2.6-0.1-4.3v-10.4c2,1.5,3.8,2.6,5.4,3.2c1.6,0.6,3.5,0.9,5.7,0.9c3.8,0,7.3-0.8,10.6-2.5c3.3-1.7,6.1-4,8.5-7
			c2.4-3,4.3-6.4,5.7-10.4c1.4-4,2.1-8.3,2.1-12.9C250.5,171.7,250,168,249,164.7"/>
		<path id="Fill-10_00000037677155868093952660000012501669901649881250_" class="st0" d="M296.7,198.4c-2,4.5-4.8,6.7-8.3,6.7
			c-2.1,0-3.9-0.8-5.6-2.5v-44.9c1.7-1.1,3-1.8,3.9-2.2c0.9-0.4,1.8-0.6,2.7-0.6c3.2,0,5.7,2.2,7.5,6.6c1.8,4.4,2.7,10.4,2.7,18.1
			C299.6,187.6,298.6,193.9,296.7,198.4 M319.3,164.7c-1-3.3-2.5-6.2-4.3-8.6c-1.9-2.4-4.1-4.3-6.7-5.6c-2.6-1.3-5.4-2-8.5-2
			c-2.9,0-5.7,0.6-8.4,1.7c-2.7,1.1-5.6,3-8.7,5.7v-4.8v-2.6l-28,8.4v0.5v1.2c1.2,0.2,2.2,0.4,3,0.8c1.1,0.5,2.1,1.3,2.9,2.3
			c0.5,0.6,0.8,1.3,1.1,1.9c0.3,0.7,0.5,1.5,0.6,2.4c0.2,0.9,0.3,2,0.3,3.2c0.1,1.3,0.1,2.7,0.1,4.4v36v4.7c0,1.3,0,2.4-0.1,3.2
			c0,0.8-0.1,1.6-0.2,2.2c-0.1,0.6-0.2,1.2-0.3,1.8c-0.2,1.4-0.7,2.6-1.5,3.4c-0.8,1.1-1.8,1.8-2.9,2.2c-0.5,0.2-1.2,0.4-2,0.5v1.8
			h34v-1.6c-1-0.1-1.9-0.3-2.5-0.5c-1.1-0.3-2-0.9-2.7-1.7c-0.4-0.5-0.7-0.9-0.9-1.5c-0.2-0.5-0.4-1.2-0.6-2c-0.2-0.8-0.2-1.8-0.3-3
			c0-1.2-0.1-2.6-0.1-4.3v-10.4c2,1.5,3.8,2.6,5.4,3.2c1.6,0.6,3.5,0.9,5.7,0.9c3.8,0,7.3-0.8,10.6-2.5c3.3-1.7,6.1-4,8.5-7
			c2.4-3,4.3-6.4,5.7-10.4c1.4-4,2.1-8.3,2.1-12.9C320.8,171.7,320.3,168,319.3,164.7"/>
		<path id="Fill-12_00000136412264453705938140000002532692604296946304_" class="st0" d="M419,204.9c-1.1-0.3-1.9-0.9-2.5-1.8
			c-0.4-0.5-0.7-0.9-0.8-1.5c-0.2-0.5-0.4-1.2-0.5-2c-0.2-0.8-0.2-1.8-0.3-3c0-1.2-0.1-2.7-0.1-4.4V185v-6.8v-29.8l-28.3,8.5v1.7
			c1.4,0.2,2.5,0.5,3.3,0.8c1.1,0.5,2.1,1.3,2.9,2.3c0.5,0.6,0.8,1.2,1.1,1.9c0.3,0.7,0.5,1.5,0.6,2.4c0.1,0.9,0.3,2,0.3,3.2
			c0.1,1.2,0.1,2.7,0.1,4.4v18.6c0,3.6-0.1,6.1-0.3,7.6c-0.2,1.5-0.6,2.6-1.2,3.4c-0.7,0.8-1.5,1.4-2.6,1.8
			c-0.8,0.2-1.8,0.4-3.2,0.6v1.5h34.3v-1.6C420.6,205.3,419.6,205.2,419,204.9"/>
		<path id="Fill-14_00000172422039198002788510000012137286114582103733_" class="st0" d="M355.7,149.9c2.3,0,4,0.9,5.2,2.8
			c1.2,1.9,2,4.9,2.3,9c0.1,0.8,0.1,1.5,0.2,2.1c0,0.6,0.1,1.3,0.1,2c0,0.7,0.1,1.6,0.1,2.5v2.2h-17.4c0.1-6.5,0.9-11.5,2.4-15
			C350.1,151.8,352.5,149.9,355.7,149.9z M383,184.3c-1.1,1.8-2.1,3.1-2.8,3.9c-0.8,0.9-1.8,1.7-3.1,2.6c-3.3,2.4-7.4,3.5-12.1,3.5
			c-12.5,0-18.9-7.1-18.9-21.3h35.6v0h1.9c-0.5-3.7-1.5-7.1-3-10.1c-1.5-3-3.5-5.6-6-7.8c-2.4-2.1-5.2-3.8-8.4-4.9
			c-3.2-1.1-6.7-1.7-10.4-1.7c-4.3,0-8.3,0.8-12.1,2.4c-3.7,1.6-7,3.8-9.8,6.6c-2.8,2.8-5,6-6.6,9.7c-1.6,3.7-2.4,7.7-2.4,12
			c0,4.2,0.8,8.1,2.3,11.6c1.5,3.6,3.6,6.7,6.3,9.3c2.7,2.6,5.9,4.7,9.5,6.2c3.7,1.5,7.6,2.2,11.8,2.2c4.5,0,8.5-0.9,12.2-2.6
			c3.7-1.7,6.9-4.2,9.5-7.4c0.8-1.1,1.6-2.1,2.2-3c0.6-0.9,1.2-1.9,1.8-2.8c0.5-1,1.1-2.1,1.6-3.4c0.5-1.3,1.1-2.8,1.8-4.6
			L383,184.3z"/>
	</g>
</g>
</svg>
