<svg id="Layer_1" data-name="Layer 1" xmlns="http://www.w3.org/2000/svg" viewBox="0 0 1292 174"><defs><style>.cls-1{fill:#f30;}.cls-2{fill:#012a38;}</style></defs><path class="cls-1" d="M56.63,86.52,170.92,59.26V0H111.66Z"/><path class="cls-1" d="M0,85.48A85,85,0,0,0,2.5,106L56.64,86.52,2.05,66.82A86.07,86.07,0,0,0,0,85.46Z"/><path class="cls-1" d="M20.13,30.38,56.62,86.52,73.44.85A85.23,85.23,0,0,0,20.13,30.38Z"/><path class="cls-1" d="M56.63,86.52l114.29,27.24V173H111.66Z"/><path class="cls-1" d="M20.14,142.64,56.62,86.5l16.81,85.66a85.32,85.32,0,0,1-53.31-29.53Z"/><path class="cls-2" d="M271.94,86.79C271.94,57.07,294.87,36,327,36c20.66,0,37,8.19,44.2,24.23,0,.05-26.4,7-26.4,7a23.76,23.76,0,0,0-18-7.76c-14.5,0-25.88,10.1-25.88,27.33s11.38,27.34,25.88,27.34a23.46,23.46,0,0,0,17.92-7.64l26.41,6.31c-7.2,15.67-23.49,24.81-44.16,24.81-32.1,0-55.05-21.1-55.05-50.83Z"/><path class="cls-2" d="M487.23,79.64v56.51H458.62V84c0-16-7.35-23.3-20-23.3-13.76,0-23.67,8.45-23.67,26.61v48.81H386.33V7L414.94,0V47.71C422.66,40,433.67,36,446.33,36c23.3,0,40.92,13.57,40.92,43.68Z"/><path class="cls-2" d="M612.18,32.82V136.15H584.84V124.77c-7.15,8.62-17.62,12.85-30.82,12.85-27.9,0-49.36-19.82-49.36-50.83S526.12,36,554,36c12.11,0,22.39,3.86,29.54,11.92v-8l28.62-7Zm-28.08,54c0-17.06-11-27.34-25.14-27.34s-25.32,10.28-25.32,27.34,11,27.33,25.32,27.33S584.1,103.85,584.1,86.79Z"/><path class="cls-2" d="M697.89,36V62.38c-2.39-.17-4.23-.36-6.42-.36-15.78,0-26.25,8.62-26.25,27.52v46.61H636.61V39.43l27.33-6.61V50.46C670.92,40.92,682.65,36,697.89,36Z"/><path class="cls-2" d="M815.29,32.82v86.81c0,36.7-19.81,53.58-55.41,53.58-18.71,0-36.89-4.59-48.44-13.57l11.38-20.55c8.43,6.79,22.2,11.19,34.85,11.19,20.19,0,29-9.17,29-27v-4.22c-7.52,8.25-18.35,12.29-31.19,12.29-27.33,0-49.35-18.9-49.35-47.71S728.15,36,755.48,36c13.77,0,25.14,4.59,32.67,14.13V39.51l27.16-6.67ZM787,83.67c0-14.5-10.82-24.21-25.88-24.21s-26.06,9.73-26.06,24.21,11,24.21,26.06,24.21S787,98.15,787,83.67Z"/><path class="cls-2" d="M865.38,103.05c4.72,7.71,13.24,11.63,24.66,11.63,10.47,0,18-3.12,24.78-9.54l15.24,16.52c-9.17,10.47-22.94,16-40.73,16-34.14,0-56.34-21.46-56.34-50.83S855.38,36,885.84,36c27.28,0,49.83,18.21,51,48.54L865.4,103.07m-4.32-16.95,48.23-11.51c-2.75-10.1-11.55-17-23.47-17C871.53,57.64,861.08,66.74,861.08,86.12Z"/><path class="cls-2" d="M1105.44,103.05c4.72,7.71,13.24,11.63,24.67,11.63,10.46,0,18-3.12,24.77-9.54l15.24,16.52c-9.17,10.47-22.94,16-40.73,16-34.14,0-56.34-21.46-56.34-50.83S1095.44,36,1125.9,36c27.28,0,49.83,18.21,51,48.54l-71.41,18.55m-4.32-16.95,48.24-11.51c-2.76-10.1-11.56-17-23.48-17C1111.59,57.64,1101.14,66.74,1101.14,86.12Z"/><path class="cls-2" d="M1220.2,103.05c4.72,7.71,13.24,11.63,24.67,11.63,10.46,0,18-3.12,24.77-9.54l15.24,16.52c-9.17,10.47-22.94,16-40.74,16-34.13,0-56.33-21.46-56.33-50.83S1210.2,36,1240.66,36c27.28,0,49.83,18.21,51,48.54l-71.41,18.55m-4.32-16.95,48.23-11.51c-2.75-10.1-11.55-17-23.47-17C1226.35,57.64,1215.9,66.74,1215.9,86.12Z"/><path class="cls-2" d="M1061.88,86.79c0,31-21.46,50.83-49.18,50.83-13.22,0-23.84-4.23-31-12.85v11.38H954.35V7L983,0V47.88C990.31,39.8,1000.4,36,1012.69,36c27.7,0,49.18,19.81,49.18,50.83Zm-29,0c0-17.06-10.82-27.33-25.15-27.33S982.6,69.73,982.6,86.79s10.83,27.33,25.14,27.33,25.15-10.27,25.15-27.33Z"/></svg>